<svg fill="#000000" xmlns="http://www.w3.org/2000/svg"  viewBox="0 0 100 100" width="100px" height="100px"><path d="M 49.5 12 C 43.712628 12 39 16.712628 39 22.5 C 39 26.57254 37.546448 31.235269 36.222656 34.669922 C 35.657639 31.794683 33.912886 29.165313 31.183594 27.589844 C 29.930829 26.866257 28.589692 26.432577 27.236328 26.265625 C 23.176236 25.764769 19.012405 27.674736 16.841797 31.433594 C 13.947533 36.445611 15.673475 42.882199 20.685547 45.775391 C 24.201714 47.805178 27.503233 51.380428 29.814453 54.240234 C 28.335308 53.743869 26.751178 53.571766 25.181641 53.765625 C 23.830508 53.932508 22.492746 54.366373 21.242188 55.089844 C 16.238833 57.983735 14.518783 64.419934 17.40625 69.431641 C 20.293778 74.443454 26.720422 76.169273 31.722656 73.275391 C 35.236294 71.242076 39.982554 70.169123 43.609375 69.597656 C 41.402906 71.524303 40 74.349317 40 77.5 C 40 83.287372 44.712628 88 50.5 88 C 56.287372 88 61 83.287372 61 77.5 C 61 73.42746 62.453552 68.764731 63.777344 65.330078 C 64.342361 68.205317 66.087114 70.834687 68.816406 72.410156 C 73.82752 75.304535 80.264004 73.578311 83.158203 68.566406 C 86.052467 63.554389 84.328478 57.117801 79.316406 54.224609 C 75.785426 52.186271 72.470976 48.590129 70.158203 45.724609 C 72.917651 46.664193 76.043096 46.480668 78.757812 44.910156 C 83.761167 42.016265 85.481217 35.580066 82.59375 30.568359 C 80.69881 27.279357 77.280778 25.404174 73.740234 25.322266 C 73.234442 25.310564 72.725425 25.335856 72.21875 25.398438 C 70.867618 25.56532 69.527902 26.001139 68.277344 26.724609 C 64.763706 28.757924 60.017446 29.830877 56.390625 30.402344 C 58.597094 28.475697 60 25.650683 60 22.5 C 60 16.712628 55.287372 12 49.5 12 z M 49.5 14 C 54.206628 14 58 17.793372 58 22.5 C 58 27.206628 54.206628 31 49.5 31 C 45.397224 31 42.120094 32.418029 39.646484 34.087891 C 39.150373 34.4117 38.67161 34.75756 38.208984 35.125 C 39.592731 31.576601 41 27.031618 41 22.5 C 41 17.793372 44.793372 14 49.5 14 z M 49.5 16 C 47.100922 16 45.013928 17.31398 43.890625 19.25 A 0.50005 0.50005 0 1 0 44.755859 19.75 C 45.708557 18.10802 47.465078 17 49.5 17 C 51.12946 17 52.582775 17.709278 53.591797 18.833984 A 0.50005 0.50005 0 1 0 54.335938 18.166016 C 53.14696 16.840722 51.42054 16 49.5 16 z M 55.417969 20.992188 A 0.50005 0.50005 0 0 0 54.916016 21.583984 C 54.967512 21.88922 55 22.193213 55 22.5 C 55 23.141643 54.879115 23.75287 54.671875 24.332031 A 0.50005 0.50005 0 1 0 55.613281 24.667969 C 55.854041 23.99513 56 23.268357 56 22.5 C 56 22.124787 55.960854 21.76278 55.902344 21.416016 A 0.50005 0.50005 0 0 0 55.417969 20.992188 z M 53.955078 25.994141 A 0.50005 0.50005 0 0 0 53.568359 26.164062 C 53.180734 26.590636 52.739458 26.958922 52.248047 27.244141 A 0.50063738 0.50063738 0 1 0 52.751953 28.109375 C 53.342542 27.766593 53.860219 27.329363 54.308594 26.835938 A 0.50005 0.50005 0 0 0 53.955078 25.994141 z M 73.703125 27.314453 C 76.564758 27.376189 79.320143 28.89141 80.861328 31.566406 C 83.209861 35.642699 81.824461 40.825625 77.757812 43.177734 C 73.692048 45.529852 68.5223 44.144546 66.173828 40.068359 C 66.148399 40.024214 66.119429 39.98707 66.09375 39.943359 C 65.930703 39.683299 65.768834 39.423303 65.59375 39.171875 C 63.769156 36.411228 61.450459 34.582428 59.195312 33.382812 C 58.851766 33.192023 58.494817 33.025154 58.138672 32.855469 C 57.763436 32.676688 57.386304 32.503998 56.998047 32.349609 C 60.751423 31.773024 65.370405 30.717123 69.279297 28.455078 C 70.295738 27.867049 71.379664 27.514039 72.472656 27.376953 C 72.882529 27.325546 73.29432 27.305634 73.703125 27.314453 z M 25.75 28.179688 C 26.159759 28.17082 26.571593 28.190771 26.982422 28.242188 C 28.077964 28.379297 29.164858 28.733852 30.183594 29.322266 C 34.259522 31.675074 35.648658 36.857611 33.294922 40.933594 C 31.122314 44.697343 30.780589 48.462415 31.078125 51.541016 C 31.111796 51.958133 31.166303 52.368215 31.226562 52.777344 C 28.845354 49.803964 25.611885 46.31149 21.685547 44.044922 A 1.0001 1.0001 0 0 0 21.685547 44.042969 C 17.609618 41.690161 16.220482 36.509576 18.574219 32.433594 C 20.118937 29.758594 22.881686 28.241761 25.75 28.179688 z M 73.529297 29.333984 A 0.50005 0.50005 0 1 0 73.527344 30.333984 C 75.419863 30.337684 77.256316 31.304089 78.271484 33.066406 C 79.053106 34.422318 79.179514 35.964354 78.771484 37.359375 A 0.50062546 0.50062546 0 1 0 79.732422 37.640625 C 80.212224 36.00022 80.058236 34.16805 79.136719 32.568359 C 77.939887 30.490677 75.762777 29.338315 73.529297 29.333984 z M 26.498047 30.212891 A 0.50005 0.50005 0 0 0 26.453125 31.210938 C 27.218247 31.283587 27.976489 31.511413 28.683594 31.919922 C 29.244022 32.243421 29.718997 32.65771 30.119141 33.130859 A 0.50005 0.50005 0 1 0 30.880859 32.484375 C 30.415003 31.933524 29.853166 31.441188 29.183594 31.054688 C 28.346699 30.571196 27.445753 30.302147 26.546875 30.216797 A 0.50005 0.50005 0 0 0 26.498047 30.212891 z M 21.623047 31.996094 A 0.50005 0.50005 0 0 0 21.283203 32.152344 C 20.91868 32.527589 20.582992 32.951198 20.304688 33.433594 C 19.14393 35.444634 19.185533 37.822202 20.201172 39.734375 A 0.50005 0.50005 0 1 0 21.083984 39.265625 C 20.223623 37.645798 20.186632 35.640553 21.171875 33.933594 C 21.40357 33.53199 21.684524 33.172411 22 32.847656 A 0.50005 0.50005 0 0 0 21.623047 31.996094 z M 50 33 C 51.08544 33 52.143391 33.112939 53.171875 33.306641 C 53.372393 33.346541 53.570357 33.387056 53.792969 33.439453 C 54.091556 33.507391 54.387346 33.58262 54.679688 33.666016 C 54.948009 33.743369 55.22394 33.830946 55.509766 33.927734 C 55.798346 34.026427 56.085878 34.126706 56.367188 34.240234 C 56.512678 34.297604 56.6606 34.359026 56.808594 34.421875 C 59.656033 35.665763 62.086257 37.66928 63.863281 40.173828 C 64.059234 40.465783 64.259233 40.750149 64.441406 41.066406 C 64.48609 41.143962 64.539578 41.213086 64.585938 41.289062 C 65.156966 42.244271 65.639914 43.260809 66.019531 44.324219 C 66.021252 44.32921 66.023669 44.334834 66.025391 44.339844 C 66.269098 45.024885 66.467992 45.730671 66.623047 46.453125 C 66.639647 46.529896 66.653977 46.612927 66.669922 46.691406 C 66.883423 47.761138 67 48.866001 67 50 C 67 54.111817 65.545596 57.87902 63.123047 60.816406 C 63.123047 60.816406 63.121094 60.818359 63.121094 60.818359 C 63.110493 60.830933 63.094751 60.846676 63.083984 60.859375 C 62.779471 61.226051 62.456895 61.57638 62.123047 61.916016 C 62.021774 62.018193 61.90954 62.125678 61.800781 62.230469 C 61.551605 62.470917 61.294747 62.702768 61.03125 62.927734 C 60.935311 63.010574 60.846394 63.092702 60.746094 63.175781 C 57.818655 65.564906 54.080213 67 50 67 C 48.91456 67 47.856609 66.887061 46.828125 66.693359 C 46.627623 66.653462 46.429626 66.612942 46.207031 66.560547 C 45.908444 66.492609 45.612653 66.41738 45.320312 66.333984 C 45.052008 66.256634 44.776044 66.169052 44.490234 66.072266 C 44.201654 65.973573 43.914122 65.873294 43.632812 65.759766 C 43.487327 65.702397 43.339395 65.640973 43.191406 65.578125 C 40.343967 64.334237 37.913743 62.33072 36.136719 59.826172 C 35.940731 59.534213 35.740809 59.249856 35.558594 58.933594 C 35.530339 58.884553 35.493918 58.843213 35.464844 58.794922 C 34.836269 57.757136 34.31522 56.650579 33.917969 55.482422 C 33.845316 55.264051 33.773267 55.066846 33.701172 54.818359 C 33.579131 54.403842 33.469602 53.983753 33.378906 53.556641 C 33.356438 53.452961 33.33766 53.341166 33.316406 53.234375 C 33.115051 52.186635 33 51.107188 33 50 C 33 47.079398 33.734209 44.332587 35.027344 41.933594 C 35.035472 41.919518 35.040798 41.904729 35.048828 41.890625 C 35.571311 40.927853 36.187163 40.020392 36.878906 39.181641 C 37.193993 38.799717 37.530176 38.436773 37.876953 38.083984 C 37.978226 37.981807 38.09046 37.874322 38.199219 37.769531 C 38.448395 37.529083 38.705253 37.297232 38.96875 37.072266 C 39.064689 36.989426 39.153606 36.907298 39.253906 36.824219 C 42.181345 34.435094 45.919787 33 50 33 z M 31.509766 33.994141 A 0.50005 0.50005 0 0 0 31.039062 34.681641 C 31.267924 35.270405 31.402732 35.889368 31.421875 36.515625 A 0.50005 0.50005 0 1 0 32.419922 36.484375 C 32.397062 35.736632 32.239795 35.005595 31.972656 34.318359 A 0.50005 0.50005 0 0 0 31.509766 33.994141 z M 77.222656 39.996094 A 0.50005 0.50005 0 0 0 76.914062 40.109375 C 76.914062 40.109375 76.437749 40.47813 76.261719 40.580078 C 75.663631 40.926531 75.024837 41.135804 74.373047 41.238281 A 0.50027827 0.50027827 0 1 0 74.529297 42.226562 C 75.289507 42.107039 76.047806 41.85886 76.761719 41.445312 C 77.103688 41.247262 77.537109 40.890625 77.537109 40.890625 A 0.50005 0.50005 0 0 0 77.222656 39.996094 z M 70.427734 40.46875 A 0.50005 0.50005 0 0 0 70.203125 41.402344 C 70.551824 41.609589 70.916716 41.774003 71.287109 41.908203 A 0.50005 0.50005 0 1 0 71.626953 40.96875 C 71.307346 40.85295 71.002145 40.713723 70.714844 40.542969 A 0.50005 0.50005 0 0 0 70.427734 40.46875 z M 68.783203 47.236328 C 71.163656 50.206896 74.396493 53.692219 78.316406 55.955078 A 1.0001 1.0001 0 0 0 78.316406 55.957031 C 82.392335 58.309839 83.781471 63.490424 81.427734 67.566406 C 79.073933 71.642501 73.891292 73.031356 69.816406 70.677734 C 65.740478 68.324926 64.351342 63.142389 66.705078 59.066406 C 68.704663 55.603125 69.143225 52.148414 68.970703 49.21875 C 68.941531 48.548397 68.882205 47.886492 68.783203 47.236328 z M 26.667969 55.679688 C 29.529602 55.741422 32.284987 57.256643 33.826172 59.931641 C 33.851606 59.975785 33.880566 60.012931 33.90625 60.056641 C 34.069297 60.316701 34.231166 60.576697 34.40625 60.828125 C 36.231097 63.58874 38.549664 65.417559 40.804688 66.617188 C 41.510196 67.008994 42.245191 67.349467 43.001953 67.650391 C 39.248577 68.226976 34.629595 69.282877 30.720703 71.544922 C 26.654938 73.89704 21.487144 72.50978 19.138672 68.433594 C 16.790139 64.357301 18.175541 59.174375 22.242188 56.822266 C 23.258629 56.234236 24.344507 55.879273 25.4375 55.742188 C 25.847372 55.690779 26.259164 55.670867 26.667969 55.679688 z M 25.556641 57.765625 A 0.50005 0.50005 0 0 0 25.470703 57.773438 C 24.710493 57.892961 23.952194 58.14114 23.238281 58.554688 C 22.896312 58.752738 22.462891 59.109375 22.462891 59.109375 A 0.50005 0.50005 0 1 0 23.085938 59.890625 C 23.085938 59.890625 23.562251 59.52187 23.738281 59.419922 C 24.336369 59.073469 24.975163 58.864196 25.626953 58.761719 A 0.50005 0.50005 0 0 0 25.556641 57.765625 z M 27.535156 57.789062 A 0.50005 0.50005 0 0 0 27.455078 58.783203 C 28.102571 58.901433 28.723472 59.122934 29.285156 59.457031 A 0.50009542 0.50009542 0 0 0 29.796875 58.597656 C 29.124559 58.197754 28.389273 57.936598 27.634766 57.798828 A 0.50005 0.50005 0 0 0 27.535156 57.789062 z M 79.351562 59.994141 A 0.50005 0.50005 0 0 0 78.916016 60.734375 C 79.776377 62.354202 79.813367 64.359447 78.828125 66.066406 C 78.596429 66.46801 78.315476 66.827589 78 67.152344 A 0.50005 0.50005 0 1 0 78.716797 67.847656 C 79.08132 67.472411 79.417007 67.048802 79.695312 66.566406 C 80.856071 64.555366 80.814467 62.177798 79.798828 60.265625 A 0.50005 0.50005 0 0 0 79.351562 59.994141 z M 20.734375 61.994141 A 0.50005 0.50005 0 0 0 20.267578 62.359375 C 19.787776 63.99978 19.941764 65.83195 20.863281 67.431641 C 22.060113 69.509323 24.237223 70.661685 26.470703 70.666016 A 0.50005 0.50005 0 1 0 26.472656 69.666016 C 24.580137 69.662316 22.743684 68.695911 21.728516 66.933594 C 20.946894 65.577682 20.820486 64.035646 21.228516 62.640625 A 0.50005 0.50005 0 0 0 20.734375 61.994141 z M 68.056641 62.994141 A 0.50005 0.50005 0 0 0 67.580078 63.515625 C 67.602938 64.263368 67.760205 64.994405 68.027344 65.681641 A 0.5008921 0.5008921 0 1 0 68.960938 65.318359 C 68.732074 64.729595 68.597268 64.110632 68.578125 63.484375 A 0.50005 0.50005 0 0 0 68.056641 62.994141 z M 61.791016 64.875 C 60.407269 68.423399 59 72.968382 59 77.5 C 59 82.206628 55.206628 86 50.5 86 C 45.793372 86 42 82.206628 42 77.5 C 42 72.793372 45.793372 69 50.5 69 C 54.602776 69 57.879906 67.581971 60.353516 65.912109 C 60.849627 65.5883 61.32839 65.24244 61.791016 64.875 z M 70.474609 67.609375 A 0.50005 0.50005 0 0 0 70.199219 68.511719 C 70.37316 68.642888 70.567434 68.803955 70.816406 68.947266 L 70.816406 68.945312 C 71.653301 69.428804 72.554247 69.697853 73.453125 69.783203 A 0.50005 0.50005 0 1 0 73.546875 68.789062 C 72.781753 68.716414 72.023511 68.488587 71.316406 68.080078 C 71.155379 67.987388 70.99284 67.857722 70.800781 67.712891 A 0.50005 0.50005 0 0 0 70.474609 67.609375 z M 47.525391 71.818359 A 0.50005 0.50005 0 0 0 47.470703 71.820312 A 0.50005 0.50005 0 0 0 47.248047 71.890625 C 46.657458 72.233407 46.139781 72.670637 45.691406 73.164062 A 0.50005 0.50005 0 1 0 46.431641 73.835938 C 46.819266 73.409363 47.260542 73.041078 47.751953 72.755859 A 0.50005 0.50005 0 0 0 47.525391 71.818359 z M 44.873047 74.992188 A 0.50005 0.50005 0 0 0 44.824219 74.994141 A 0.50005 0.50005 0 0 0 44.386719 75.332031 C 44.145959 76.00487 44 76.731643 44 77.5 C 44 77.875213 44.039146 78.23722 44.097656 78.583984 A 0.50026397 0.50026397 0 0 0 45.083984 78.416016 C 45.032484 78.11078 45 77.806787 45 77.5 C 45 76.858357 45.120885 76.24713 45.328125 75.667969 A 0.50005 0.50005 0 0 0 44.873047 74.992188 z M 55.685547 79.994141 A 0.50005 0.50005 0 0 0 55.244141 80.25 C 54.291443 81.89198 52.534922 83 50.5 83 C 48.87054 83 47.417225 82.290722 46.408203 81.166016 A 0.50005 0.50005 0 1 0 45.664062 81.833984 C 46.85304 83.159278 48.57946 84 50.5 84 C 52.899078 84 54.986072 82.68602 56.109375 80.75 A 0.50005 0.50005 0 0 0 55.685547 79.994141 z"/></svg>